<?xml version="1.0" encoding="utf-8"?>
<svg viewBox="0 0 500 500" xmlns="http://www.w3.org/2000/svg">
  <g id="layer1" style="display: inline;" transform="matrix(0.999732, 0, 0, 1, 2.612675, -184.085358)">
    <path style="color:#000000;fill:#61995e;fill-opacity:1;fill-rule:evenodd;stroke:none;stroke-width:0.99999964;stroke-linecap:butt;stroke-linejoin:miter;marker:none;marker-start:none;marker-mid:none;marker-end:none;stroke-miterlimit:4;stroke-dashoffset:0;stroke-opacity:1;visibility:visible;display:inline;overflow:visible" d="M 2.0545631e-17,2e-05 L 569.18806,2e-05 L 569.18806,885.83002 L 2.0545631e-17,885.83002 L 2.0545631e-17,2e-05 z " id="rect6643"/>
    <g id="g11131" transform="matrix(0,1,1,0,-216.7894,41.94202)"/>
    <g id="g14002" transform="matrix(1,0,0,0.333332,-217.5504,343.2646)"/>
    <g style="display:inline" id="g11144" transform="translate(-190.5354,46.81968)">
      <path id="rect1307" d="M 181.798 -43.336 L 769.037 -43.336 L 769.037 837.811 L 181.798 837.811 L 181.798 -43.336 Z" style="color: rgb(0, 0, 0); fill: rgb(225, 155, 78); fill-opacity: 1; fill-rule: evenodd; stroke: rgb(255, 255, 255); stroke-width: 3.54331; stroke-linecap: butt; stroke-linejoin: miter; marker: none; stroke-miterlimit: 4; stroke-dashoffset: 0; stroke-opacity: 1; visibility: visible; display: inline; overflow: visible;"/>
      <g id="g14031" transform="matrix(1.829245, 0, 0, -1.239989, -391.773621, 433.858154)" style="">
        <g id="g14035" transform="matrix(0.5,0,0,1,194.8053,-268.7663)">
          <path id="path14037" d="M 140.27908,505.4112 L 150.909,505.4112 L 150.909,508.95451 L 140.27908,508.95451 L 140.27908,505.4112 z " style="color:#000000;fill:#ffffff;fill-opacity:1;fill-rule:evenodd;stroke:none;stroke-width:1;stroke-linecap:butt;stroke-linejoin:miter;marker:none;marker-start:none;marker-mid:none;marker-end:none;stroke-miterlimit:4;stroke-dashoffset:0;stroke-opacity:1;visibility:visible;display:inline;overflow:visible"/>
          <path id="path14039" d="M 165.08223,505.4112 L 175.71215,505.4112 L 175.71215,508.95451 L 165.08223,508.95451 L 165.08223,505.4112 z " style="color:#000000;fill:#ffffff;fill-opacity:1;fill-rule:evenodd;stroke:none;stroke-width:1;stroke-linecap:butt;stroke-linejoin:miter;marker:none;marker-start:none;marker-mid:none;marker-end:none;stroke-miterlimit:4;stroke-dashoffset:0;stroke-opacity:1;visibility:visible;display:inline;overflow:visible"/>
          <path id="path14041" d="M 115.47593,505.4112 L 126.10585,505.4112 L 126.10585,508.95451 L 115.47593,508.95451 L 115.47593,505.4112 z " style="color:#000000;fill:#ffffff;fill-opacity:1;fill-rule:evenodd;stroke:none;stroke-width:1;stroke-linecap:butt;stroke-linejoin:miter;marker:none;marker-start:none;marker-mid:none;marker-end:none;stroke-miterlimit:4;stroke-dashoffset:0;stroke-opacity:1;visibility:visible;display:inline;overflow:visible"/>
          <path id="path14043" d="M 189.88537,505.4112 L 200.51529,505.4112 L 200.51529,508.95451 L 189.88537,508.95451 L 189.88537,505.4112 z " style="color:#000000;fill:#ffffff;fill-opacity:1;fill-rule:evenodd;stroke:none;stroke-width:1;stroke-linecap:butt;stroke-linejoin:miter;marker:none;marker-start:none;marker-mid:none;marker-end:none;stroke-miterlimit:4;stroke-dashoffset:0;stroke-opacity:1;visibility:visible;display:inline;overflow:visible"/>
          <path id="path14045" d="M 214.68852,505.4112 L 225.31844,505.4112 L 225.31844,508.95451 L 214.68852,508.95451 L 214.68852,505.4112 z " style="color:#000000;fill:#ffffff;fill-opacity:1;fill-rule:evenodd;stroke:none;stroke-width:1;stroke-linecap:butt;stroke-linejoin:miter;marker:none;marker-start:none;marker-mid:none;marker-end:none;stroke-miterlimit:4;stroke-dashoffset:0;stroke-opacity:1;visibility:visible;display:inline;overflow:visible"/>
        </g>
        <g id="g14047" transform="matrix(-0.5,0,0,1,753.1947,-268.7663)">
          <path id="path14049" d="M 140.27908,505.4112 L 150.909,505.4112 L 150.909,508.95451 L 140.27908,508.95451 L 140.27908,505.4112 z " style="color:#000000;fill:#ffffff;fill-opacity:1;fill-rule:evenodd;stroke:none;stroke-width:1;stroke-linecap:butt;stroke-linejoin:miter;marker:none;marker-start:none;marker-mid:none;marker-end:none;stroke-miterlimit:4;stroke-dashoffset:0;stroke-opacity:1;visibility:visible;display:inline;overflow:visible"/>
          <path id="path14051" d="M 165.08223,505.4112 L 175.71215,505.4112 L 175.71215,508.95451 L 165.08223,508.95451 L 165.08223,505.4112 z " style="color:#000000;fill:#ffffff;fill-opacity:1;fill-rule:evenodd;stroke:none;stroke-width:1;stroke-linecap:butt;stroke-linejoin:miter;marker:none;marker-start:none;marker-mid:none;marker-end:none;stroke-miterlimit:4;stroke-dashoffset:0;stroke-opacity:1;visibility:visible;display:inline;overflow:visible"/>
          <path id="path14053" d="M 115.47593,505.4112 L 126.10585,505.4112 L 126.10585,508.95451 L 115.47593,508.95451 L 115.47593,505.4112 z " style="color:#000000;fill:#ffffff;fill-opacity:1;fill-rule:evenodd;stroke:none;stroke-width:1;stroke-linecap:butt;stroke-linejoin:miter;marker:none;marker-start:none;marker-mid:none;marker-end:none;stroke-miterlimit:4;stroke-dashoffset:0;stroke-opacity:1;visibility:visible;display:inline;overflow:visible"/>
          <path id="path14055" d="M 189.88537,505.4112 L 200.51529,505.4112 L 200.51529,508.95451 L 189.88537,508.95451 L 189.88537,505.4112 z " style="color:#000000;fill:#ffffff;fill-opacity:1;fill-rule:evenodd;stroke:none;stroke-width:1;stroke-linecap:butt;stroke-linejoin:miter;marker:none;marker-start:none;marker-mid:none;marker-end:none;stroke-miterlimit:4;stroke-dashoffset:0;stroke-opacity:1;visibility:visible;display:inline;overflow:visible"/>
          <path id="path14057" d="M 214.68852,505.4112 L 225.31844,505.4112 L 225.31844,508.95451 L 214.68852,508.95451 L 214.68852,505.4112 z " style="color:#000000;fill:#ffffff;fill-opacity:1;fill-rule:evenodd;stroke:none;stroke-width:1;stroke-linecap:butt;stroke-linejoin:miter;marker:none;marker-start:none;marker-mid:none;marker-end:none;stroke-miterlimit:4;stroke-dashoffset:0;stroke-opacity:1;visibility:visible;display:inline;overflow:visible"/>
        </g>
      </g>
      <path id="path11029" d="M 182.254 26.866 L 769.284 26.866 L 769.284 39.499 L 182.254 39.499 L 182.254 26.866 Z" style="color: rgb(0, 0, 0); fill: rgb(255, 255, 255); fill-opacity: 1; fill-rule: evenodd; stroke: none; stroke-width: 1; stroke-linecap: butt; stroke-linejoin: miter; marker: none; stroke-miterlimit: 4; stroke-dashoffset: 0; stroke-opacity: 1; visibility: visible; display: inline; overflow: visible;"/>
      <path id="path14942" d="M 181.139 140.566 L 767.373 140.566 L 767.373 135.817 L 181.139 135.817 L 181.139 140.566 Z" style="color: rgb(0, 0, 0); fill: rgb(255, 255, 255); fill-opacity: 1; fill-rule: evenodd; stroke: none; stroke-width: 1; stroke-linecap: butt; stroke-linejoin: miter; marker: none; stroke-miterlimit: 4; stroke-dashoffset: 0; stroke-opacity: 1; visibility: visible; display: inline; overflow: visible;"/>
      <rect x="861.412" y="237.266" width="153.876" height="357.626" style="stroke: rgb(0, 0, 0); fill: rgb(77, 157, 63);"/>
    </g>
  </g>
  <ellipse style="stroke: rgb(0, 0, 0); fill: rgb(85, 109, 141);" cx="129.644" cy="72.667" rx="70.323" ry="72.667"/>
  <ellipse style="stroke: rgb(0, 0, 0); fill: rgb(85, 109, 141);" cx="463.566" cy="72.667" rx="70.323" ry="72.667"/>
  <ellipse style="stroke: rgb(0, 0, 0); fill: rgb(85, 109, 141);" cx="188.965" cy="317.825" rx="70.323" ry="72.667"/>
  <ellipse style="stroke: rgb(0, 0, 0); fill: rgb(85, 109, 141);" cx="404.245" cy="317.825" rx="70.323" ry="72.667"/>
  <ellipse style="stroke: rgb(0, 0, 0); fill: rgb(85, 109, 141);" cx="129.677" cy="527.333" rx="70.323" ry="72.667"/>
  <ellipse style="stroke: rgb(0, 0, 0); fill: rgb(85, 109, 141);" cx="470.323" cy="527.333" rx="70.323" ry="72.667"/>
</svg>